<svg id="Layer_1" data-name="Layer 1" xmlns="http://www.w3.org/2000/svg" viewBox="0 0 550.05 80.19"><defs><style>.cls-1{fill:#010101;}.cls-2{fill:#ee3524;}</style></defs><title>CompassRed primary</title><path class="cls-1" d="M208,330c-14.28,0-24-9.66-24-23.54s9.76-23.53,24-23.53,24.13,9.76,24.13,23.53S222.24,330,208,330Zm0-11c6.33,0,9.45-5.13,9.45-12.58s-3.12-12.57-9.45-12.57-9.35,5.13-9.35,12.57S201.52,319,208,319Z" transform="translate(-120.7 -265.44)"/><path class="cls-1" d="M293.1,283.21c12.17,0,15.89,8.44,15.89,17.9v27.95H294.51V304.63c0-6.44-1.61-10-6.84-10-5.63,0-8.15,4.63-8.15,11.67v22.72H264.94V304.63c0-6.44-1.61-10-6.94-10-5.53,0-8.14,4.63-8.14,11.67v22.72H235.38V284.41h14.48v6.94c2.41-4.93,7.34-8.14,14.08-8.14,7.84,0,12.16,3.62,14.07,9C280.33,287.13,285.76,283.21,293.1,283.21Z" transform="translate(-120.7 -265.44)"/><path class="cls-1" d="M329.5,345.63H315V284.69H329.5v8c2.21-5.33,7.34-9.25,15.08-9.25,13.07,0,19.91,10.46,19.91,23.53s-6.84,23.53-19.91,23.53c-7.74,0-12.87-3.92-15.08-9.15Zm1.07-38.11c0,7.24,3.87,11.76,9.54,11.76,6.43,0,9.55-4.93,9.55-12.27s-3.12-12.17-9.55-12.17c-5.67,0-9.54,4.53-9.54,11.67Z" transform="translate(-120.7 -265.44)"/><path class="cls-2" d="M656.27,267.19h14.48v62.15H656.27v-8c-2.22,5.33-7.35,9.25-15.09,9.25-13.07,0-19.91-10.46-19.91-23.53s6.84-23.53,19.91-23.53c7.74,0,12.87,3.92,15.09,9.15Zm-1.08,39.32c0-7.24-3.87-11.77-9.54-11.77-6.43,0-9.55,4.93-9.55,12.27s3.12,12.17,9.55,12.17c5.67,0,9.54-4.53,9.54-11.66Z" transform="translate(-120.7 -265.44)"/><path class="cls-1" d="M430.67,314.45c.6,4.33,4,6.74,9.45,6.74,3.92,0,6.54-1.41,6.54-3.82,0-2.21-1.41-3.42-5-4l-6.84-1.11c-10.26-1.61-15.79-5.13-15.79-14,0-8.65,7.54-14.78,19.51-14.78,12.67,0,20.22,5.63,21.12,15.19l-12,.4c-.71-3.92-3.83-6.14-9.36-6.14-3.62,0-5.83,1.51-5.83,3.93,0,1.81,1.41,2.91,3.62,3.21l8.65,1.51c9.75,1.51,15.38,5.83,15.38,14.38,0,9.35-7.94,14.58-20.11,14.58s-21.22-4.92-22-15.78Z" transform="translate(-120.7 -265.44)"/><path class="cls-1" d="M476.9,314.45c.61,4.33,4,6.74,9.46,6.74,3.92,0,6.53-1.41,6.53-3.82,0-2.21-1.4-3.42-5-4L481,312.24c-10.26-1.61-15.79-5.13-15.79-14,0-8.65,7.54-14.78,19.51-14.78,12.67,0,20.21,5.63,21.12,15.19l-12,.4c-.71-3.92-3.82-6.14-9.35-6.14-3.62,0-5.84,1.51-5.84,3.93,0,1.81,1.41,2.91,3.62,3.21l8.65,1.51c9.76,1.51,15.39,5.83,15.39,14.38,0,9.35-7.95,14.58-20.11,14.58s-21.22-4.92-22-15.78Z" transform="translate(-120.7 -265.44)"/><path class="cls-2" d="M553.21,329.34c-1.31-1.71-2.11-5.83-2.62-12.57-.5-7.14-3.72-9.46-10.05-9.46H527.77v22h-15V266h30.57c16.39,0,24.44,7.64,24.44,19.81,0,9.36-5.93,15.19-13.68,16.19,6.74,1.31,10.56,5.23,11.27,12.67.9,9.36,1.2,12.37,3.31,14.69Zm-12.27-33.79c7.94,0,11.87-2.32,11.87-8.55,0-5.63-3.93-8.75-11.87-8.75H527.77v17.3Z" transform="translate(-120.7 -265.44)"/><path class="cls-2" d="M616.39,314.65c-2.31,10.16-10.25,15.89-21.92,15.89-14.18,0-24.23-8.65-24.23-22.82s10.25-24.24,23.93-24.24c14.79,0,22.53,10.16,22.53,22.33v4.42H584.52c.4,5.93,4.82,9.35,10.46,9.35,5,0,8.14-1.91,9.75-6Zm-13.67-12.16c-.3-4.43-3.12-8.45-8.65-8.45-5.83,0-8.55,3.72-9.35,8.45Z" transform="translate(-120.7 -265.44)"/><path class="cls-1" d="M413,320.59c-1.8,0-2.81-1-2.81-3.32V301c0-12.17-8.35-17.4-20-17.4-12.57,0-19.68,6.44-21.34,15.75l13.39,1.45c.81-3.72,2.92-6.34,7.14-6.34,4.43,0,6.54,2.52,6.54,6.74v.8L383.4,304.2c-9.86,1.9-16.29,5.53-16.29,14.08,0,7.64,5.63,12.16,14.58,12.16,6.94,0,12.47-2.71,15-7.84,1.3,5,5.22,7.84,10.55,7.84a15.11,15.11,0,0,0,9.46-2.91v-7.14A28.08,28.08,0,0,1,413,320.59Zm-17.09-10.06c0,6.34-4.22,10.36-9.55,10.36-3.12,0-5.13-1.61-5.13-4.22,0-3.52,2.81-4.63,7.34-5.54l7.34-1.5Z" transform="translate(-120.7 -265.44)"/><path class="cls-1" d="M153.58,317.72a20.2,20.2,0,0,1-2.93-.24l-6.89,7.81-.25-10.41a19.37,19.37,0,0,1-9.33-16.56,18.88,18.88,0,0,1,.25-2.93l-7.82-6.89,10.41-.25a19.37,19.37,0,0,1,16.56-9.33,20.2,20.2,0,0,1,2.93.24l6.89-7.82.25,10.42a19.44,19.44,0,0,1,6.67,6.79l11.66-6.8a32.88,32.88,0,1,0,0,33.14l-11.66-6.8A19.37,19.37,0,0,1,153.58,317.72Z" transform="translate(-120.7 -265.44)"/></svg>